# xmcd CD database file
#
# Track frame offsets:
#	182
#	13060
#	28820
#	65097
#	109150
#	156607
#	188270
#	211282
#	212852
#	278657
#	280747
#
# Disc length: 4371 seconds
#
# Revision: 5
# Processed by: cddbd v1.5.2PL0 Copyright (c) Steve Scherf et al.
# Submitted via: CDex 1.99
#
DISCID=a311110b
DTITLE=Rene Clemencic, Clemencic Consort - Troubadours Cantigas de Santa Maria CD1
DYEAR=1995
DGENRE=Renaissance
TTITLE0=Anonymus (Fin XIIe): A l'entrada del temps clar
TTITLE1=Peirol (1180-c.1225): Quant Amors trobet partit
TTITLE2=Peire Vidal (c.1175-1204): Vida et Razos
TTITLE3=Peire Vidal (c.1175-1204): Barons de mon dan convit
TTITLE4=Bernart de Ventadorn (c.1125 - ?) - Quand vei la laudeta mover
TTITLE5=Rambaut de Vaqueiras (c.1155-1207): Vida
TTITLE6=Rambaut de Vaqueiras (c.1155-1207): Calenda maia
TTITLE7=La Comtessa de Dia (c.1160) - Vida
TTITLE8=La Comtessa de Dia (c.1160) - A Chantar
TTITLE9=Azalais de Porcairagues (XIIe): Vida
TTITLE10=Azalais de Porcairagues (XIIe): Ar em al freg temps vengut
EXTD=YEAR: 1995
EXTT0=
EXTT1=
EXTT2=
EXTT3=
EXTT4=
EXTT5=
EXTT6=
EXTT7=
EXTT8=
EXTT9=
EXTT10=
PLAYORDER=
